# Blender 4.2.1 LTS
# www.blender.org
mtllib SupportBeam.mtl
o Cube.005
v -17.000000 -9.250000 5.500000
v -13.191056 -9.033894 -5.744506
v -17.000000 -9.250000 -5.500000
v -13.000000 -9.250000 5.500000
v -15.000000 -9.250000 5.500000
v -15.000000 -9.250000 -5.500000
v -13.709917 1.262406 6.004694
v -13.542830 1.889003 -5.623827
v -13.271180 6.012737 0.015647
v -16.769411 1.716834 -5.789278
v -16.729271 1.115216 5.887671
v -16.836281 6.280163 -0.017000
v -16.775177 5.310777 5.367237
v -16.742275 -3.731551 5.455737
v -16.658705 -3.737602 -5.630716
v -13.233295 6.956988 -5.498235
v -13.630791 -3.770186 -6.177848
v -14.165577 -4.079810 6.282012
v -14.000000 -9.250000 -5.500000
v -16.000000 -9.250000 -5.500000
v -16.000000 -9.250000 5.500000
v -14.000000 -9.250000 5.500000
v -13.381722 5.184348 5.201653
v -16.687796 6.917754 -5.398177
v -17.000000 -9.250000 8.250000
v -15.000000 -9.250000 8.250000
v -13.004253 1.750337 8.250429
v -13.000000 -9.250000 8.250000
v -16.841896 1.721545 8.209082
v -17.023466 4.989729 8.079307
v -16.664295 -3.786711 8.012770
v -13.017780 -3.751698 8.250718
v -16.000000 -9.250000 8.250000
v -14.000000 -9.250000 8.250000
v -13.049526 4.963191 8.073416
v -13.000000 -9.250000 -8.250000
v -16.828850 1.734351 -8.253546
v -17.000000 -9.250000 -8.250000
v -15.000000 -9.250000 -8.250000
v -13.661536 1.859458 -7.975585
v -16.885624 -3.756644 -8.211141
v -13.294086 6.748688 -8.016398
v -13.533211 -3.843973 -8.174643
v -14.000000 -9.250000 -8.250000
v -16.000000 -9.250000 -8.250000
v -16.696850 6.637534 -7.981057
v -12.940009 3.655938 0.046708
v -17.000000 3.717897 0.000000
v -17.000000 2.757835 5.500000
v -13.270239 4.594051 -5.597031
v -13.399388 3.053263 5.468952
v -16.877945 4.561363 -5.495436
v -13.000557 2.325994 8.250059
v -16.862476 2.319144 8.164643
v -16.999950 4.836661 -8.250001
v -13.084583 4.861322 -8.233253
v -16.928923 6.478581 2.745149
v -13.289000 6.036485 2.688194
v -13.367001 3.808119 2.869960
v -17.056654 3.532718 2.809294
v -13.489433 6.017012 -2.860509
v -17.086710 6.622169 -2.735915
v -17.038759 4.315934 -2.780869
v -12.804113 4.176826 -2.811818
v -15.000000 -9.250000 8.250000
v -15.000000 -3.750000 8.250000
v -15.001235 1.750896 8.369685
v -15.001345 2.326944 8.380297
v -15.023466 4.989729 8.079307
v -15.051353 6.881303 -8.059284
v -15.000000 7.250000 -5.500000
v -15.000000 6.467897 0.000000
v -15.042965 5.599342 5.454017
v -15.000000 -9.250000 -8.250000
v -15.000000 -3.750000 -8.250000
v -15.000000 1.750000 -8.250000
v -15.000000 4.836660 -8.250000
v -14.928923 6.478581 2.745149
v -15.086710 6.622169 -2.735915
v -13.000000 -9.250000 6.875000
v -16.675367 1.381876 6.935967
v -16.886848 5.146370 6.711287
v -16.582170 -3.743720 6.746480
v -17.000000 -9.250000 6.875000
v -15.000000 -9.250000 6.875000
v -13.638145 1.490074 7.096508
v -14.077823 -3.943164 7.340612
v -16.000000 -9.250000 6.875000
v -14.000000 -9.250000 6.875000
v -13.439960 4.818995 6.583193
v -13.553855 2.595490 6.940649
v -16.924995 2.547506 6.825854
v -15.033216 5.294536 6.766662
v -17.000000 -9.250000 -6.875000
v -15.000000 -9.250000 -6.875000
v -13.763037 1.878842 -6.816430
v -13.332818 6.753095 -6.733687
v -13.658377 -3.808512 -7.329315
v -14.000000 -9.250000 -6.875000
v -16.000000 -9.250000 -6.875000
v -13.017625 -9.230392 -6.894495
v -16.825043 1.700204 -7.033227
v -16.622046 -3.745601 -6.882213
v -16.589516 6.699474 -6.815813
v -16.819979 4.670858 -6.877752
v -13.286377 4.761856 -6.896622
v -15.025677 7.156615 -6.877173
v -14.974394 -3.746980 6.152084
v -15.000000 -9.250000 -5.500000
v -14.982395 -3.725044 -6.087113
v -15.021387 1.744082 -5.633814
v -15.000159 4.415905 -5.426829
v -15.000000 3.717897 0.000000
v -15.000402 2.870558 5.614119
v -15.120292 1.101980 6.124290
v -15.000000 -9.250000 5.500000
v -15.056654 3.532718 2.809294
v -15.038759 4.315934 -2.780869
v -15.057563 7.047841 -9.530536
v -16.703060 6.804071 -9.452309
v -17.006161 5.003199 -9.721252
v -13.300297 6.915226 -9.487650
v -13.090793 5.027860 -9.704505
v -15.006210 5.003198 -9.721251
v -15.010291 2.409229 9.401926
v -16.871422 2.401429 9.186273
v -15.032413 5.072014 9.100936
v -13.058473 5.045475 9.095046
v -13.009503 2.408278 9.271688
v -17.032412 5.072014 9.100936
v -12.614926 6.070367 -2.854472
v -12.396673 6.066092 0.021683
v -12.458311 6.806450 -6.727650
v -12.358788 7.010344 -5.492198
v -12.414493 6.089840 2.694230
v -12.507215 5.237703 5.207690
v -12.565453 4.872351 6.589229
v -12.175020 5.016546 8.079453
v -12.065502 3.709293 0.052745
v -12.395732 4.647406 -5.590994
v -12.524881 3.106618 5.474989
v -12.126051 2.379349 8.256096
v -12.419580 6.802043 -8.010362
v -12.210076 4.914678 -8.227217
v -12.679348 2.648846 6.946686
v -12.492494 3.861474 2.875997
v -12.411870 4.815211 -6.890585
v -11.929606 4.230181 -2.805782
v -12.425790 6.968581 -9.481613
v -12.216286 5.081215 -9.698468
v -12.183966 5.098830 9.101082
v -12.134996 2.461633 9.277725
v -17.881607 6.534026 2.746401
v -17.788963 6.335608 -0.015748
v -17.839531 5.201815 6.712540
v -17.727859 5.366221 5.368489
v -18.039394 6.677614 -2.734663
v -17.640478 6.973198 -5.396925
v -17.542198 6.754919 -6.814560
v -17.649534 6.692978 -7.979805
v -17.952682 3.773342 0.001252
v -17.952682 2.813280 5.501252
v -17.830627 4.616808 -5.494184
v -17.976151 5.045174 8.080559
v -17.815159 2.374589 8.165895
v -17.952635 4.892106 -8.248749
v -17.772663 4.726303 -6.876500
v -17.991442 4.371379 -2.779617
v -17.877678 2.602951 6.827106
v -18.009338 3.588163 2.810546
v -17.958845 5.058644 -9.720000
v -17.824104 2.456874 9.187526
v -17.655745 6.859516 -9.451056
v -17.985096 5.127459 9.102188
vn -0.0000 0.9968 -0.0803
vn -0.1257 0.9778 0.1679
vn -0.0580 -0.9950 -0.0812
vn 0.0579 0.9959 -0.0696
vn -0.9963 0.0620 0.0601
vn -0.9956 -0.0138 0.0926
vn -0.0100 0.0036 -0.9999
vn -0.0609 0.9981 0.0061
vn -0.0110 0.0666 0.9977
vn 0.9931 0.1047 0.0523
vn 0.9944 0.0114 -0.1054
vn 0.2008 0.9722 -0.1202
vn -0.0000 -1.0000 -0.0000
vn 0.1425 -0.9860 0.0865
vn -0.0491 0.9944 0.0935
vn 0.2573 0.9663 -0.0087
vn -0.0601 0.9949 -0.0807
vn 0.0998 0.0976 0.9902
vn 0.0316 -0.0902 0.9954
vn -0.0644 -0.0912 0.9937
vn -0.0580 -0.9939 -0.0933
vn 0.0603 -0.9962 0.0628
vn 0.8982 0.1094 -0.4258
vn 0.7771 -0.0462 -0.6277
vn 0.0578 0.9912 0.1193
vn 0.0050 -0.9954 -0.0952
vn 0.0345 -0.9667 -0.2535
vn -0.0530 -0.2756 -0.9598
vn 0.2664 0.0438 -0.9629
vn -0.9943 0.0442 0.0967
vn -0.9945 -0.0115 0.1042
vn -0.9972 -0.0291 0.0685
vn 0.8973 -0.0872 -0.4328
vn 0.1817 0.0495 -0.9821
vn -0.0648 0.0236 0.9976
vn 0.9858 -0.1332 -0.1019
vn 0.0298 -0.0109 0.9995
vn 0.0623 -0.0091 0.9980
vn -0.9834 -0.1720 0.0575
vn -0.0095 -0.0038 -0.9999
vn 0.0911 -0.0507 -0.9946
vn -0.0609 0.9981 -0.0053
vn -0.0000 -0.9978 -0.0658
vn -0.0599 0.9460 0.3185
vn 0.2660 0.9118 0.3128
vn 0.0573 0.9873 -0.1481
vn -0.0452 -0.9797 -0.1952
vn 0.0578 0.9951 -0.0796
vn -0.0842 0.9835 0.1598
vn -0.0608 0.9981 -0.0093
vn 0.2570 0.9236 0.2844
vn -0.0803 0.9303 0.3578
vn -0.0000 -0.9937 -0.1125
vn 0.0009 0.0006 -1.0000
vn 0.1236 0.0190 -0.9921
vn -0.1014 0.0269 0.9945
vn -0.1122 -0.0303 0.9932
vn -0.0002 -0.0001 1.0000
vn -0.0487 0.9981 -0.0381
vn 0.3040 0.9526 0.0104
vn -0.2398 0.9641 -0.1137
vn 0.0219 0.0080 -0.9997
vn 0.2858 0.9287 0.2362
vn 0.0537 0.9133 0.4036
vn 0.1412 0.9893 0.0365
vn -0.9875 -0.1542 -0.0328
vn 0.9913 -0.1303 0.0203
vn 0.9946 -0.0855 -0.0593
vn 0.9756 0.2145 -0.0472
vn 0.0609 -0.9723 -0.2258
vn -0.9952 -0.0219 -0.0949
vn -0.9973 0.0675 -0.0299
vn -0.0579 -0.9920 -0.1123
vn -0.0403 0.9850 0.1677
vn -0.2169 0.9679 -0.1268
vn 0.9791 -0.1688 0.1136
vn -0.9998 -0.0177 -0.0015
vn -0.9996 -0.0285 0.0079
vn -0.9978 0.0650 -0.0141
vn 0.0579 0.9920 0.1120
vn 0.0100 -0.9999 0.0072
vn 0.1584 0.9812 -0.1105
vn 0.9936 0.0133 0.1120
vn 0.9921 0.1096 0.0616
vn -0.0598 0.9421 0.3299
vn -0.0000 -0.9776 -0.2102
vn 0.0569 -0.9984 -0.0010
vn 0.0622 0.1394 -0.9883
vn 0.0023 -0.0300 -0.9995
vn 0.1005 -0.2491 -0.9633
vn 0.1271 -0.9593 -0.2521
vn -0.0362 -0.9972 -0.0656
vn 0.0545 -0.0463 0.9974
vn 0.0878 -0.0257 0.9958
vn 0.1228 0.0604 0.9906
vn -0.0294 0.1205 -0.9923
vn 0.0192 0.1043 -0.9944
vn -0.1404 0.9837 0.1119
vn -0.0578 -0.9951 0.0796
vn 0.0721 0.9911 0.1119
vn 0.0138 -0.9936 -0.1125
vn -0.0558 0.0702 0.9960
vn 0.0347 0.0902 0.9953
vn 0.0612 -0.9825 -0.1761
vn 0.0132 0.9967 -0.0802
vn -0.0051 -0.9968 0.0802
vn 0.0048 -0.9968 0.0803
vn 0.9718 0.2355 0.0076
vn 0.9989 0.0049 -0.0456
vn 0.9996 -0.0201 0.0182
vn 0.9459 -0.0479 -0.3210
vn 0.9940 0.1094 0.0082
vn 0.9952 0.0586 0.0787
vn 0.9883 0.1525 -0.0001
vn 0.9974 -0.0203 0.0685
vn 0.9940 0.0565 0.0933
vn 0.9998 0.0190 0.0072
vn -0.0607 0.9656 0.2528
vn 0.0601 -0.9949 0.0807
vn 0.0612 -0.9960 -0.0649
vn 0.0612 -0.9856 -0.1579
vn -0.0590 0.9857 -0.1579
vn 0.0613 -0.9918 -0.1125
vn 0.0603 -0.9549 -0.2907
vn -0.0601 0.9949 -0.0805
vn -0.0613 0.9918 0.1125
vn -0.0001 0.1141 -0.9935
vn 0.0604 -0.9588 -0.2777
vn 0.0613 -0.9898 -0.1286
vn -0.9983 0.0524 -0.0269
vn -0.9987 0.0507 -0.0066
vn -0.9944 0.0334 -0.1002
vn -0.9850 0.1272 0.1167
vn -0.9958 0.0661 0.0636
vn -0.9981 0.0234 0.0565
vn -0.9982 -0.0603 -0.0039
vn -0.9992 -0.0245 -0.0308
vn -0.9935 0.0974 -0.0592
vn -0.9864 0.1627 0.0226
vn -0.0571 -0.9762 -0.2091
vn -0.0562 -0.9597 -0.2752
vn 0.0578 0.9904 0.1259
vn -0.0576 -0.9865 -0.1532
vn -0.0579 -0.9920 -0.1120
vn 0.0579 0.9966 -0.0583
vn 0.0578 0.9912 0.1187
vn 0.0032 0.0321 0.9995
vn -0.0581 -0.9961 -0.0668
vn 0.0072 0.1465 -0.9892
vn -0.0575 -0.9846 -0.1653
vt 0.562500 0.375000
vt 0.562500 0.031250
vt 0.562500 0.375000
vt 0.562500 0.375000
vt 0.562500 0.062500
vt 0.562500 0.046875
vt 0.531250 0.203125
vt 0.531250 0.187500
vt 0.562500 0.093750
vt 0.562500 0.125000
vt 0.375000 0.046875
vt 0.437500 0.046875
vt 0.437500 0.062500
vt 0.375000 0.062500
vt 0.500000 0.046875
vt 0.500000 0.062500
vt 0.375000 0.375000
vt 0.375000 0.218750
vt 0.437500 0.218750
vt 0.437500 0.375000
vt 0.562500 0.593750
vt 0.562500 0.625000
vt 0.562500 0.718750
vt 0.531250 0.718750
vt 0.375000 0.546875
vt 0.437500 0.546875
vt 0.437500 0.562500
vt 0.375000 0.562500
vt 0.500000 0.546875
vt 0.500000 0.562500
vt 0.562500 0.375000
vt 0.562500 0.375000
vt 0.562500 0.562500
vt 0.562500 0.546875
vt 0.250000 0.546875
vt 0.312500 0.546875
vt 0.312500 0.562500
vt 0.250000 0.562500
vt 0.125000 0.546875
vt 0.187500 0.546875
vt 0.187500 0.562500
vt 0.125000 0.562500
vt 0.562500 0.156250
vt 0.562500 0.375000
vt 0.562500 0.656250
vt 0.500000 0.375000
vt 0.531250 0.375000
vt 0.500000 0.187500
vt 0.531250 0.156250
vt 0.531250 0.656250
vt 0.531250 0.625000
vt 0.250000 0.703125
vt 0.312500 0.703125
vt 0.312500 0.718750
vt 0.250000 0.718750
vt 0.125000 0.703125
vt 0.187500 0.703125
vt 0.187500 0.718750
vt 0.125000 0.718750
vt 0.375000 0.703125
vt 0.437500 0.703125
vt 0.437500 0.718750
vt 0.375000 0.718750
vt 0.500000 0.703125
vt 0.500000 0.718750
vt 0.531250 0.562500
vt 0.531250 0.593750
vt 0.531250 0.375000
vt 0.531250 0.062500
vt 0.531250 0.093750
vt 0.500000 0.375000
vt 0.531250 0.687500
vt 0.500000 0.687500
vt 0.375000 0.203125
vt 0.437500 0.203125
vt 0.500000 0.203125
vt 0.500000 0.218750
vt 0.531250 0.218750
vt 0.531250 0.703125
vt 0.437500 0.031250
vt 0.375000 0.031250
vt 0.531250 0.546875
vt 0.500000 0.375000
vt 0.531250 0.046875
vt 0.531250 0.531250
vt 0.500000 0.531250
vt 0.562500 0.531250
vt 0.531250 0.375000
vt 0.531250 0.125000
vt 0.562500 0.687500
vt 0.562500 0.187500
vt 0.562500 0.203125
vt 0.437500 0.531250
vt 0.500000 0.031250
vt 0.531250 0.031250
vt 0.375000 0.531250
vt 0.562500 0.703125
vt 0.312500 0.687500
vt 0.375000 0.687500
vt 0.187500 0.687500
vt 0.250000 0.687500
vt 0.437500 0.687500
vt 0.125000 0.687500
vt 0.562500 0.218750
vt 0.437500 0.187500
vt 0.375000 0.187500
vt 0.187500 0.531250
vt 0.250000 0.531250
vt 0.125000 0.531250
vt 0.312500 0.531250
s 0
f 69/1/1 30/2/1 130/2/1 127/1/1
f 93/3/2 73/4/2 13/5/2 82/6/2
f 105/7/3 52/8/3 163/8/3 167/7/3
f 57/9/4 12/10/4 154/10/4 153/9/4
f 84/11/5 83/12/5 14/13/5 1/14/5
f 83/12/6 81/15/6 11/16/6 14/13/6
f 74/17/7 38/18/7 41/19/7 75/20/7
f 61/21/8 9/22/8 132/22/8 131/21/8
f 128/23/9 129/24/9 152/24/9 151/23/9
f 101/25/10 98/26/10 17/27/10 2/28/10
f 98/26/11 96/29/11 8/30/11 17/27/11
f 107/31/12 71/32/12 16/33/12 97/34/12
f 95/35/13 99/36/13 19/37/13 6/38/13
f 99/36/14 101/25/14 2/28/14 19/37/14
f 94/39/13 100/40/13 20/41/13 3/42/13
f 100/40/13 95/35/13 6/38/13 20/41/13
f 79/1/15 62/43/15 12/10/15 72/1/15
f 78/44/16 58/45/16 9/22/16 72/1/16
f 35/23/17 128/23/17 151/23/17 138/23/17
f 109/17/18 2/28/18 17/27/18 110/20/18
f 110/20/19 17/27/19 8/30/19 111/46/19
f 111/46/20 112/47/20 52/8/20 10/48/20
f 52/8/21 63/49/21 168/49/21 163/8/21
f 59/50/22 47/51/22 139/51/22 146/50/22
f 85/52/13 89/53/13 34/54/13 26/55/13
f 84/56/13 88/57/13 33/58/13 25/59/13
f 80/60/23 87/61/23 32/62/23 28/63/23
f 87/61/24 86/64/24 27/65/24 32/62/24
f 88/57/13 85/52/13 26/55/13 33/58/13
f 89/53/13 80/60/13 28/63/13 34/54/13
f 12/10/25 62/43/25 157/43/25 154/10/25
f 118/47/26 112/47/26 50/66/26 64/67/26
f 117/68/27 114/47/27 49/69/27 60/70/27
f 115/71/28 114/47/28 51/72/28 7/73/28
f 108/20/29 14/13/29 11/16/29 115/71/29
f 94/74/30 103/75/30 41/19/30 38/18/30
f 103/75/31 102/76/31 37/77/31 41/19/31
f 102/76/32 105/7/32 55/78/32 37/77/32
f 86/64/33 91/79/33 53/24/33 27/65/33
f 108/20/34 116/17/34 1/14/34 14/13/34
f 65/17/35 66/20/35 31/80/35 25/81/35
f 96/29/36 106/82/36 50/66/36 8/30/36
f 66/20/37 32/62/37 27/65/37 67/83/37
f 67/83/38 27/65/38 53/24/38 68/47/38
f 81/15/39 92/84/39 49/69/39 11/16/39
f 75/20/40 41/19/40 37/77/40 76/83/40
f 76/83/41 77/47/41 56/85/41 40/86/41
f 42/87/42 97/34/42 133/34/42 143/87/42
f 113/88/43 117/68/43 60/70/43 48/89/43
f 58/45/44 23/90/44 136/90/44 135/45/44
f 73/4/45 23/90/45 58/45/45 78/44/45
f 24/91/46 104/92/46 159/92/46 158/91/46
f 113/88/47 118/47/47 64/67/47 47/51/47
f 130/2/48 30/2/48 164/2/48 174/2/48
f 71/32/49 24/91/49 62/43/49 79/1/49
f 9/22/50 58/45/50 135/45/50 132/22/50
f 16/33/51 71/32/51 79/1/51 61/21/51
f 13/5/52 73/4/52 78/44/52 57/9/52
f 77/47/53 55/78/53 121/78/53 124/47/53
f 37/77/54 55/78/54 77/47/54 76/83/54
f 43/93/55 75/20/55 76/83/55 40/86/55
f 29/94/56 67/83/56 68/47/56 54/95/56
f 31/80/57 66/20/57 67/83/57 29/94/57
f 28/63/58 32/62/58 66/20/58 65/17/58
f 57/9/59 78/44/59 72/1/59 12/10/59
f 61/21/60 79/1/60 72/1/60 9/22/60
f 104/92/61 24/91/61 71/32/61 107/31/61
f 36/96/62 74/17/62 75/20/62 43/93/62
f 90/97/63 23/90/63 73/4/63 93/3/63
f 13/5/64 57/9/64 153/9/64 156/5/64
f 35/23/65 90/97/65 93/3/65 69/1/65
f 29/94/66 54/95/66 92/84/66 81/15/66
f 7/73/67 51/72/67 91/79/67 86/64/67
f 22/98/13 4/99/13 80/60/13 89/53/13
f 21/100/13 5/101/13 85/52/13 88/57/13
f 18/102/68 7/73/68 86/64/68 87/61/68
f 4/99/69 18/102/69 87/61/69 80/60/69
f 1/103/13 21/100/13 88/57/13 84/56/13
f 5/101/13 22/98/13 89/53/13 85/52/13
f 53/24/70 91/79/70 145/79/70 142/24/70
f 31/80/71 29/94/71 81/15/71 83/12/71
f 25/81/72 31/80/72 83/12/72 84/11/72
f 55/78/73 105/7/73 167/7/73 166/78/73
f 69/1/74 93/3/74 82/6/74 30/2/74
f 46/104/75 104/92/75 107/31/75 70/1/75
f 40/86/76 56/85/76 106/82/76 96/29/76
f 10/48/77 52/8/77 105/7/77 102/76/77
f 15/105/78 10/48/78 102/76/78 103/75/78
f 3/106/79 15/105/79 103/75/79 94/74/79
f 46/104/80 120/104/80 173/104/80 160/104/80
f 45/107/13 39/108/13 95/35/13 100/40/13
f 38/109/13 45/107/13 100/40/13 94/39/13
f 44/110/81 36/96/81 101/25/81 99/36/81
f 39/108/13 44/110/13 99/36/13 95/35/13
f 70/1/82 107/31/82 97/34/82 42/87/82
f 43/93/83 40/86/83 96/29/83 98/26/83
f 36/96/84 43/93/84 98/26/84 101/25/84
f 16/33/85 61/21/85 131/21/85 134/33/85
f 48/89/86 63/49/86 118/47/86 113/88/86
f 47/51/87 59/50/87 117/68/87 113/88/87
f 18/102/88 4/99/88 116/17/88 108/20/88
f 18/102/89 108/20/89 115/71/89 7/73/89
f 11/16/90 49/69/90 114/47/90 115/71/90
f 59/50/91 51/72/91 114/47/91 117/68/91
f 63/49/92 52/8/92 112/47/92 118/47/92
f 8/30/93 50/66/93 112/47/93 111/46/93
f 15/105/94 110/20/94 111/46/94 10/48/94
f 3/106/95 109/17/95 110/20/95 15/105/95
f 119/1/96 124/47/96 121/78/96 120/104/96
f 122/87/97 123/85/97 124/47/97 119/1/97
f 46/104/98 70/1/98 119/1/98 120/104/98
f 54/95/99 126/95/99 172/95/99 165/95/99
f 70/1/100 42/87/100 122/87/100 119/1/100
f 56/85/101 77/47/101 124/47/101 123/85/101
f 125/47/102 127/1/102 130/2/102 126/95/102
f 129/24/103 128/23/103 127/1/103 125/47/103
f 47/51/104 64/67/104 148/67/104 139/51/104
f 35/23/105 69/1/105 127/1/105 128/23/105
f 54/95/106 68/47/106 125/47/106 126/95/106
f 68/47/107 53/24/107 129/24/107 125/47/107
f 148/67/108 131/21/108 132/22/108 139/51/108
f 147/82/109 133/34/109 134/33/109 140/66/109
f 146/50/110 135/45/110 136/90/110 141/72/110
f 145/79/111 137/97/111 138/23/111 142/24/111
f 143/87/112 144/85/112 150/85/112 149/87/112
f 139/51/113 132/22/113 135/45/113 146/50/113
f 140/66/114 134/33/114 131/21/114 148/67/114
f 141/72/115 136/90/115 137/97/115 145/79/115
f 144/85/116 143/87/116 133/34/116 147/82/116
f 142/24/117 138/23/117 151/23/117 152/24/117
f 23/90/118 90/97/118 137/97/118 136/90/118
f 129/24/119 53/24/119 142/24/119 152/24/119
f 106/82/120 56/85/120 144/85/120 147/82/120
f 64/67/121 50/66/121 140/66/121 148/67/121
f 97/34/122 16/33/122 134/33/122 133/34/122
f 56/85/123 123/85/123 150/85/123 144/85/123
f 91/79/124 51/72/124 141/72/124 145/79/124
f 90/97/125 35/23/125 138/23/125 137/97/125
f 122/87/126 42/87/126 143/87/126 149/87/126
f 123/85/127 122/87/127 149/87/127 150/85/127
f 51/72/128 59/50/128 146/50/128 141/72/128
f 50/66/129 106/82/129 147/82/129 140/66/129
f 170/70/130 153/9/130 154/10/130 161/89/130
f 169/84/131 155/6/131 156/5/131 162/69/131
f 168/49/132 157/43/132 158/91/132 163/8/132
f 167/7/133 159/92/133 160/104/133 166/78/133
f 162/69/134 156/5/134 153/9/134 170/70/134
f 161/89/135 154/10/135 157/43/135 168/49/135
f 164/2/136 165/95/136 172/95/136 174/2/136
f 165/95/137 164/2/137 155/6/137 169/84/137
f 163/8/138 158/91/138 159/92/138 167/7/138
f 166/78/139 160/104/139 173/104/139 171/78/139
f 30/2/25 82/6/25 155/6/25 164/2/25
f 63/49/140 48/89/140 161/89/140 168/49/140
f 60/70/141 49/69/141 162/69/141 170/70/141
f 82/6/142 13/5/142 156/5/142 155/6/142
f 49/69/143 92/84/143 169/84/143 162/69/143
f 121/78/144 55/78/144 166/78/144 171/78/144
f 104/92/145 46/104/145 160/104/145 159/92/145
f 62/43/146 24/91/146 158/91/146 157/43/146
f 126/95/147 130/2/147 174/2/147 172/95/147
f 48/89/148 60/70/148 170/70/148 161/89/148
f 120/104/149 121/78/149 171/78/149 173/104/149
f 92/84/150 54/95/150 165/95/150 169/84/150
